# xmcd CD database file
#
# Track frame offsets:
#	150
#	28929
#	55631
#	78706
#	100999
#	126694
#	149839
#	178652
#	208757
#	234124
#
# Disc length: 3609 seconds
#
# Revision: 0
# Processed by: cddbd v1.5.2PL0 Copyright (c) Steve Scherf et al.
# Submitted via: CDex 1.70beta2
#
DISCID=960e170a
DTITLE=Stan Tracey Trio with Guy Barker - Let Them Crevulate
DYEAR=2006
DGENRE=Jazz
TTITLE0=Let Them Crevulate
TTITLE1=Strange Fruit
TTITLE2=Drop Me Off In Harlem
TTITLE3=Copper Kiss
TTITLE4=My Little Brown Book
TTITLE5=I'm Getting Sentimental Over You
TTITLE6=Soneva
TTITLE7=Come Rain Or Shine
TTITLE8=Lullaby Of The Leaves
TTITLE9=Monk's Dream
EXTD=YEAR: 2006
EXTT0=
EXTT1=
EXTT2=
EXTT3=
EXTT4=
EXTT5=
EXTT6=
EXTT7=
EXTT8=
EXTT9=
PLAYORDER=
